<?xml version="1.0"?>
<svg xmlns="http://www.w3.org/2000/svg" height="512px" viewBox="-24 0 511 512" width="512px"><g><path d="m139.292969 235.042969c0-8.496094-6.890625-15.382813-15.386719-15.382813h-79.699219c-8.5 0-15.386719 6.886719-15.386719 15.382813v215.417969h110.472657zm0 0" data-original="#000000" class="active-path" data-old_color="#000000" fill="#CCCCCC"/><path d="m436.011719 148.074219c0-8.5-6.890625-15.386719-15.386719-15.386719h-79.699219c-8.496093 0-15.386719 6.886719-15.386719 15.386719v302.386719h110.472657zm0 0" data-original="#000000" class="active-path" data-old_color="#000000" fill="#CCCCCC"/><path d="m287.652344 263.304688c0-8.496094-6.886719-15.386719-15.382813-15.386719h-79.703125c-8.496094 0-15.382812 6.890625-15.382812 15.386719v187.15625h110.46875zm0 0" data-original="#000000" class="active-path" data-old_color="#000000" fill="#CCCCCC"/><path d="m448.953125 481.230469h-433.066406c-8.5 0-15.386719 6.886719-15.386719 15.382812 0 8.5 6.886719 15.386719 15.386719 15.386719h433.066406c8.496094 0 15.386719-6.886719 15.386719-15.386719 0-8.496093-6.890625-15.382812-15.386719-15.382812zm0 0" data-original="#000000" class="active-path" data-old_color="#000000" fill="#CCCCCC"/><path d="m107.863281 176.265625c.453125 0 .914063-.019531 1.371094-.058594 1.390625-.125 34.578125-3.195312 81.691406-19.886719 43.257813-15.328124 107.144531-45.632812 165.863281-102.972656.292969-.285156.558594-.585937.824219-.890625v23.675781c0 8.5 6.886719 15.386719 15.382813 15.386719s15.386718-6.886719 15.386718-15.386719v-60.746093c0-8.5-6.890624-15.386719-15.386718-15.386719h-60.75c-8.496094 0-15.382813 6.886719-15.382813 15.386719 0 8.496093 6.886719 15.382812 15.382813 15.382812h23.6875c-.214844.1875-.4375.363281-.644532.566407-54.378906 53.105468-113.558593 81.3125-153.628906 95.621093-43.671875 15.597657-74.839844 18.570313-75.148437 18.597657-8.453125.757812-14.699219 8.21875-13.953125 16.675781.707031 8.007812 7.421875 14.035156 15.304687 14.035156zm0 0" data-original="#000000" class="active-path" data-old_color="#000000" fill="#CCCCCC"/></g> </svg>
